<?xml version="1.0" standalone="no"?>
<!DOCTYPE svg PUBLIC "-//W3C//DTD SVG 20010904//EN"
 "http://www.w3.org/TR/2001/REC-SVG-20010904/DTD/svg10.dtd">
<svg version="1.0" xmlns="http://www.w3.org/2000/svg"
 width="512.000000pt" height="512.000000pt" viewBox="0 0 512.000000 512.000000"
 preserveAspectRatio="xMidYMid meet">

<g transform="translate(0.000000,512.000000) scale(0.100000,-0.100000)"
fill="#000000" stroke="none">
<path d="M3215 4725 c-588 -94 -1128 -507 -1396 -1070 -92 -193 -142 -376
-159 -590 -16 -191 -26 -252 -80 -471 -107 -436 -229 -758 -363 -959 -23 -35
-216 -238 -457 -480 -230 -231 -423 -430 -429 -442 -16 -31 -14 -110 4 -148
20 -41 212 -231 249 -245 35 -13 97 -13 133 1 15 5 222 203 458 438 413 411
434 431 534 489 197 116 504 228 879 321 221 55 288 66 475 81 342 27 643 145
939 368 367 276 626 678 720 1119 20 95 23 134 22 323 0 207 -2 219 -31 331
-133 502 -509 849 -1012 933 -114 19 -370 20 -486 1z m471 -120 c490 -86 849
-449 930 -940 20 -122 14 -389 -11 -505 -132 -608 -599 -1126 -1190 -1319
-143 -46 -262 -68 -445 -81 -96 -6 -184 -21 -305 -49 -519 -122 -871 -254
-1103 -414 l-73 -50 -45 44 c-27 27 -40 45 -32 48 7 2 49 27 94 57 186 124
476 245 824 344 97 28 120 43 120 79 0 34 -14 46 -104 95 -180 97 -340 261
-440 450 -14 27 -31 55 -37 62 -16 20 -63 17 -81 -3 -8 -10 -36 -90 -62 -178
-90 -305 -208 -579 -321 -744 -30 -45 -55 -89 -55 -98 0 -12 -14 -3 -45 27
-25 24 -45 48 -45 52 0 5 21 36 46 71 60 82 181 330 238 489 112 312 221 767
230 962 33 667 525 1302 1187 1534 78 28 237 66 314 75 85 11 330 6 411 -8z
m-1792 -2449 c59 -82 173 -198 259 -260 37 -28 67 -53 67 -56 0 -3 -33 -16
-72 -29 -150 -48 -326 -115 -427 -162 -57 -27 -106 -48 -108 -46 -2 2 17 46
41 98 51 110 135 330 167 442 13 42 24 77 25 77 1 0 23 -29 48 -64z m-604
-881 l115 -115 -365 -365 c-284 -284 -370 -365 -390 -365 -35 0 -210 174 -210
210 0 19 78 103 362 387 200 200 365 363 368 363 3 0 57 -52 120 -115z"/>
<path d="M3250 4436 c-525 -94 -995 -477 -1198 -976 -140 -344 -144 -694 -11
-978 98 -211 280 -384 496 -472 424 -172 990 -42 1385 318 278 254 444 538
520 887 20 96 17 382 -6 480 -69 299 -267 546 -533 667 -128 58 -240 80 -418
84 -104 2 -186 -2 -235 -10z m202 -193 l88 -88 -92 -92 -93 -93 -92 92 -93 93
87 87 c48 49 92 88 98 88 5 0 49 -39 97 -87z m221 68 c15 -6 13 -11 -16 -39
l-33 -32 -44 46 -45 46 60 -8 c33 -3 68 -10 78 -13z m-568 -51 c-14 -16 -21
-18 -32 -8 -13 10 -12 13 4 19 36 15 47 10 28 -11z m794 -30 c31 -17 78 -47
105 -66 l49 -36 -79 -79 -79 -79 -92 92 -93 92 52 53 c29 29 59 53 66 53 8 0
40 -14 71 -30z m-927 -47 l28 -27 -92 -93 -92 -93 -53 52 c-29 29 -53 56 -53
59 0 13 201 128 224 129 6 0 23 -12 38 -27z m206 -390 l-93 -93 -92 92 -93 93
92 92 93 93 92 -92 93 -93 -92 -92z m540 0 l-93 -93 -92 92 -93 93 92 92 93
93 92 -92 93 -93 -92 -92z m502 127 c60 -102 60 -104 -1 -166 l-53 -54 -93 92
-93 93 78 78 77 78 23 -28 c13 -15 40 -57 62 -93z m-1553 28 c29 -29 53 -57
53 -63 0 -6 -39 -50 -88 -98 l-87 -87 -65 65 -64 65 87 85 c48 47 93 85 100
85 6 0 35 -23 64 -52z m241 -425 l-93 -93 -92 92 -93 93 92 92 93 93 92 -92
93 -93 -92 -92z m540 0 l-93 -93 -92 92 -93 93 92 92 93 93 92 -92 93 -93 -92
-92z m540 0 l-93 -93 -92 92 -93 93 92 92 93 93 92 -92 93 -93 -92 -92z
m-1538 93 c0 -6 -39 -50 -87 -98 l-87 -88 -38 37 -38 37 32 55 c17 31 49 82
71 115 l39 58 54 -53 c30 -29 54 -58 54 -63z m1885 -38 l7 -53 -46 45 -46 44
32 33 33 34 6 -25 c4 -14 10 -49 14 -78z m-1615 -233 c0 -5 -39 -49 -87 -97
l-88 -88 -92 92 -93 93 92 92 93 93 87 -87 c49 -48 88 -92 88 -98z m458 -92
l-93 -93 -92 92 -93 93 92 92 93 93 92 -92 93 -93 -92 -92z m540 0 l-93 -93
-92 92 -93 93 92 92 93 93 92 -92 93 -93 -92 -92z m622 92 c0 -5 -39 -49 -87
-97 l-88 -88 -92 92 -93 93 92 92 93 93 87 -87 c49 -48 88 -92 88 -98z m-2160
1 c0 -7 -16 -27 -35 -46 l-34 -33 10 39 c18 63 28 77 45 63 8 -6 14 -17 14
-23z m270 -271 c0 -5 -39 -49 -87 -97 l-88 -88 -92 92 -93 93 92 92 93 93 87
-87 c49 -48 88 -92 88 -98z m540 0 c0 -5 -39 -49 -87 -97 l-88 -88 -92 92 -93
93 92 92 93 93 87 -87 c49 -48 88 -92 88 -98z m458 -92 l-93 -93 -92 92 -93
93 92 92 93 93 92 -92 93 -93 -92 -92z m540 0 l-93 -93 -92 92 -93 93 92 92
93 93 92 -92 93 -93 -92 -92z m296 105 c-9 -30 -10 -31 -24 -23 -8 5 -6 13 6
26 22 25 27 24 18 -3z m-1564 -283 c0 -5 -39 -49 -87 -97 l-88 -88 -92 92 -93
93 92 92 93 93 87 -87 c49 -48 88 -92 88 -98z m458 -92 l-93 -93 -92 92 -93
93 92 92 93 93 92 -92 93 -93 -92 -92z m540 0 l-93 -93 -92 92 -93 93 92 92
93 93 92 -92 93 -93 -92 -92z m483 170 c-20 -41 -65 -119 -100 -173 -9 -12
-20 -5 -66 40 l-55 54 92 93 93 93 29 -30 30 -30 -23 -47z m-2074 -15 c29 -29
53 -57 53 -63 0 -16 -87 -98 -93 -88 -6 9 -27 162 -27 190 0 22 13 15 67 -39z
m323 -333 c0 -6 -40 -50 -89 -99 l-88 -88 -36 42 c-19 23 -52 73 -72 112 l-37
70 73 74 74 74 87 -87 c49 -48 88 -92 88 -98z m540 0 c0 -5 -39 -49 -87 -97
l-88 -88 -92 92 -93 93 92 92 93 93 87 -87 c49 -48 88 -92 88 -98z m458 -92
l-93 -93 -92 92 -93 93 92 92 93 93 92 -92 93 -93 -92 -92z m562 152 c0 -6
-39 -50 -87 -98 l-86 -88 -64 63 -63 63 92 92 93 93 57 -57 c32 -32 58 -62 58
-68z m-1290 -330 c0 -6 -31 -41 -69 -79 l-69 -68 -70 37 c-39 20 -89 53 -112
72 l-42 36 93 93 94 94 87 -87 c49 -48 88 -92 88 -98z m540 0 c0 -5 -39 -49
-87 -97 l-88 -88 -92 92 -93 93 92 92 93 93 87 -87 c49 -48 88 -92 88 -98z
m458 52 c-13 -9 -63 -42 -113 -72 l-90 -55 -37 37 -38 37 92 93 93 93 57 -57
58 -58 -22 -18z m-790 -262 c-6 -6 -188 14 -201 22 -5 3 13 27 39 54 l49 49
59 -59 c33 -33 57 -63 54 -66z m455 85 c-5 -4 -30 -15 -58 -24 l-49 -16 39 40
c37 37 40 39 57 23 10 -9 15 -20 11 -23z"/>
<path d="M3903 1740 c-242 -63 -432 -255 -487 -490 -20 -83 -20 -237 0 -320
47 -201 204 -384 393 -459 104 -42 150 -50 261 -51 495 -1 820 521 601 965
-141 285 -465 435 -768 355z m157 -136 c0 -55 -28 -152 -63 -218 -82 -153
-242 -264 -414 -285 l-63 -7 0 40 c0 91 50 216 121 305 87 109 254 197 382
200 36 1 37 0 37 -35z m255 -24 c109 -52 192 -135 247 -247 23 -46 39 -86 35
-89 -3 -3 -38 -10 -77 -15 -155 -19 -267 -71 -376 -172 -125 -117 -192 -243
-215 -410 -7 -48 -17 -87 -22 -87 -5 0 -44 16 -85 36 -102 49 -197 144 -245
245 -20 41 -37 87 -39 104 -3 30 -3 30 62 37 200 23 406 164 503 345 40 76 77
202 77 265 0 37 1 38 28 32 15 -3 63 -23 107 -44z m305 -511 c0 -265 -232
-507 -504 -526 l-79 -6 8 69 c14 136 61 240 153 336 92 97 196 151 327 168
102 13 95 16 95 -41z"/>
</g>
</svg>
